<?xml version="1.0" standalone="no"?>
<!DOCTYPE svg PUBLIC "-//W3C//DTD SVG 20010904//EN"
 "http://www.w3.org/TR/2001/REC-SVG-20010904/DTD/svg10.dtd">
<svg version="1.0" xmlns="http://www.w3.org/2000/svg"
 width="700.000000pt" height="700.000000pt" viewBox="0 0 700.000000 700.000000"
 preserveAspectRatio="xMidYMid meet">
<metadata>
Created by potrace 1.14, written by Peter Selinger 2001-2017
</metadata>
<g transform="translate(0.000000,700.000000) scale(0.100000,-0.100000)"
fill="#000000" stroke="none">
<path d="M2113 6646 c-397 -76 -685 -353 -808 -780 -26 -92 -27 -96 -44 -186
-18 -89 -21 -118 -27 -255 -6 -118 -4 -135 15 -187 37 -96 137 -183 234 -204
141 -30 300 44 360 168 34 71 36 80 42 178 11 178 38 295 91 407 55 115 127
180 228 205 137 34 338 -11 561 -126 75 -38 85 -41 165 -41 71 0 94 4 140 26
108 51 174 143 188 263 14 113 -37 229 -131 297 -116 84 -410 195 -617 234
-76 14 -325 14 -397 1z"/>
<path d="M4620 6650 c-19 -5 -53 -11 -75 -14 -171 -27 -449 -141 -671 -277
-344 -209 -689 -512 -1045 -919 -55 -64 -224 -276 -301 -380 -83 -112 -298
-425 -298 -434 0 -3 -17 -31 -38 -63 -148 -224 -372 -652 -519 -993 -9 -19
-21 -48 -28 -65 -8 -16 -35 -84 -61 -150 -42 -107 -48 -129 -48 -200 -1 -67 4
-90 26 -137 96 -207 362 -256 524 -99 22 22 50 59 62 83 28 57 52 114 52 123
0 4 32 81 70 172 239 560 570 1114 944 1578 90 112 101 124 248 285 291 317
599 565 881 709 268 137 483 171 623 98 41 -21 107 -89 138 -141 28 -48 71
-170 81 -231 4 -22 9 -51 11 -65 28 -159 22 -456 -12 -650 -2 -14 -7 -41 -10
-60 -3 -19 -14 -82 -26 -139 -33 -164 -14 -260 68 -350 154 -171 434 -132 534
73 18 39 45 147 65 264 3 17 7 44 10 60 31 181 40 307 40 542 0 248 -3 284
-49 516 -11 56 -79 240 -114 311 -116 227 -298 402 -511 488 -129 53 -205 67
-376 70 -88 1 -176 -1 -195 -5z"/>
<path d="M3993 5452 c-144 -46 -236 -178 -227 -329 4 -84 34 -145 125 -258
520 -645 964 -1492 1171 -2230 20 -71 56 -214 64 -250 2 -11 8 -42 14 -70 15
-74 19 -95 25 -140 4 -22 9 -56 12 -75 25 -163 34 -386 20 -540 -26 -304 -136
-504 -301 -552 -88 -25 -224 -11 -381 40 -69 22 -275 127 -365 187 -63 41
-264 188 -280 205 -18 18 -151 131 -180 152 -115 83 -270 81 -387 -6 -121 -91
-164 -264 -97 -400 43 -87 226 -249 509 -451 261 -186 613 -340 868 -381 77
-13 287 -16 352 -5 108 17 123 20 189 43 247 84 442 262 571 518 64 129 122
318 140 460 4 30 11 82 16 115 8 62 5 472 -5 560 -33 290 -102 613 -197 916
-49 156 -126 373 -154 436 -8 17 -15 34 -15 37 0 6 -72 177 -112 266 -255 566
-675 1242 -1029 1653 -84 98 -224 138 -346 99z"/>
<path d="M1565 4853 c-82 -22 -306 -102 -372 -133 -24 -11 -45 -20 -48 -20
-13 0 -250 -118 -328 -164 -48 -28 -95 -55 -105 -61 -106 -62 -278 -202 -379
-309 -169 -179 -268 -358 -313 -566 -22 -102 -20 -310 5 -405 8 -33 17 -67 19
-76 13 -52 85 -198 135 -273 203 -307 565 -566 1066 -766 100 -39 180 -69 205
-75 3 -1 18 -7 33 -13 16 -7 34 -12 40 -13 7 -1 -6 -5 -28 -10 -151 -34 -259
-172 -258 -329 0 -41 13 -202 17 -227 2 -10 7 -38 11 -63 47 -304 185 -588
363 -751 146 -134 346 -227 542 -254 50 -6 201 -7 271 0 172 16 441 102 632
203 69 36 139 107 167 168 25 56 35 166 19 217 -46 143 -147 227 -292 242 -65
7 -117 -7 -230 -60 -552 -259 -800 -107 -843 520 -7 104 -33 172 -87 232 l-36
39 92 -23 c51 -13 101 -25 112 -27 11 -2 76 -16 145 -29 125 -26 330 -60 425
-71 59 -8 130 -16 165 -21 14 -2 66 -7 115 -11 50 -3 98 -8 107 -10 120 -22
937 -22 1118 1 14 1 70 6 125 10 55 4 102 8 105 10 3 1 38 6 78 9 168 16 387
56 439 81 151 74 219 265 149 421 -64 143 -218 222 -371 191 -16 -3 -84 -13
-150 -22 -154 -22 -156 -22 -245 -30 -41 -3 -86 -8 -100 -10 -72 -11 -299 -19
-580 -19 -351 -1 -517 8 -785 40 -22 3 -58 7 -80 9 -22 3 -51 7 -65 10 -14 3
-45 7 -70 10 -25 3 -67 9 -95 15 -27 5 -66 12 -85 15 -28 5 -301 65 -360 80
-429 107 -848 301 -1076 499 -271 235 -297 443 -83 673 128 138 363 290 599
387 36 15 79 33 95 41 17 7 91 34 165 60 147 52 189 76 239 142 159 207 19
509 -242 519 -40 2 -81 0 -92 -3z"/>
<path d="M5964 4501 c-69 -33 -136 -101 -166 -169 -16 -35 -21 -67 -21 -127 0
-134 49 -211 192 -307 216 -145 340 -291 366 -432 13 -69 0 -147 -34 -215 -52
-102 -176 -225 -325 -325 -103 -68 -142 -108 -174 -176 -33 -69 -39 -177 -15
-242 63 -167 231 -254 403 -208 131 35 467 314 596 495 155 216 217 409 209
650 -4 127 -18 200 -60 311 -91 243 -306 491 -590 681 -113 76 -142 87 -236
90 -76 2 -92 -1 -145 -26z"/>
<path d="M3470 4062 c-127 -17 -246 -77 -341 -171 -122 -123 -171 -236 -176
-406 -4 -171 50 -308 172 -430 184 -185 443 -228 680 -115 141 67 248 190 301
347 37 106 39 254 5 358 -64 199 -224 350 -422 401 -60 15 -167 23 -219 16z"/>
</g>
</svg>
